<svg xmlns="http://www.w3.org/2000/svg" width="500" zoomAndPan="magnify" viewBox="0 0 375 374.999991" height="500"
     preserveAspectRatio="xMidYMid meet" version="1.0">
    <defs>
        <g/>
    </defs>
    <rect x="-37.5" width="450" fill="#ffffff" y="-37.499999" height="449.999989" fill-opacity="1"/>
    <rect x="-37.5" width="450" fill="#ffffff" y="-37.499999" height="449.999989" fill-opacity="1"/>
    <rect x="-37.5" width="450" fill="#ffffff" y="-37.499999" height="449.999989" fill-opacity="1"/>
    <g fill="#7a5eea" fill-opacity="1">
        <g transform="translate(51.099714, 289.089492)">
            <g>
                <path d="M 123.203125 -73.953125 L 102.125 -133.53125 C 100.875 -136.664062 99.554688 -140.332031 98.171875 -144.53125 C 96.785156 -148.738281 95.460938 -153.300781 94.203125 -158.21875 C 92.953125 -153.207031 91.632812 -148.578125 90.25 -144.328125 C 88.863281 -140.078125 87.546875 -136.390625 86.296875 -133.265625 L 65.359375 -73.953125 Z M 190.84375 0 L 159.5625 0 C 156.070312 0 153.226562 -0.828125 151.03125 -2.484375 C 148.84375 -4.140625 147.210938 -6.265625 146.140625 -8.859375 L 133 -46.03125 L 55.421875 -46.03125 L 42.28125 -8.859375 C 41.382812 -6.617188 39.816406 -4.582031 37.578125 -2.75 C 35.335938 -0.914062 32.519531 0 29.125 0 L -2.421875 0 L 73.671875 -194.734375 L 114.875 -194.734375 Z M 190.84375 0 "/>
            </g>
        </g>
    </g>
    <g fill="#7a5eea" fill-opacity="1">
        <g transform="translate(239.507424, 289.089492)">
            <g>
                <path d="M 60.921875 0 L 20.40625 0 L 20.40625 -194.734375 L 60.921875 -194.734375 Z M 60.921875 0 "/>
            </g>
        </g>
    </g>
</svg>