<svg width="25" height="25" viewBox="0 0 25 25" fill="none" xmlns="http://www.w3.org/2000/svg">
<path d="M15.22 9.3398L10.93 13.6398L9.28 11.9898C9.19036 11.8851 9.08004 11.8001 8.95597 11.7401C8.83191 11.6801 8.69678 11.6463 8.55906 11.641C8.42134 11.6357 8.28401 11.6589 8.15568 11.7092C8.02736 11.7594 7.91081 11.8357 7.81335 11.9331C7.7159 12.0306 7.63964 12.1472 7.58937 12.2755C7.53909 12.4038 7.51589 12.5411 7.52121 12.6789C7.52653 12.8166 7.56026 12.9517 7.62028 13.0758C7.6803 13.1998 7.76532 13.3102 7.87 13.3998L10.22 15.7598C10.3134 15.8525 10.4243 15.9258 10.5461 15.9756C10.6679 16.0253 10.7984 16.0506 10.93 16.0498C11.1923 16.0487 11.4437 15.9445 11.63 15.7598L16.63 10.7598C16.7237 10.6668 16.7981 10.5562 16.8489 10.4344C16.8997 10.3125 16.9258 10.1818 16.9258 10.0498C16.9258 9.91779 16.8997 9.78709 16.8489 9.66523C16.7981 9.54337 16.7237 9.43276 16.63 9.3398C16.4426 9.15355 16.1892 9.04902 15.925 9.04902C15.6608 9.04902 15.4074 9.15355 15.22 9.3398ZM12.5 2.5498C10.5222 2.5498 8.58879 3.13629 6.9443 4.2351C5.29981 5.33392 4.01809 6.8957 3.26121 8.72297C2.50433 10.5502 2.3063 12.5609 2.69215 14.5007C3.078 16.4405 4.03041 18.2223 5.42894 19.6209C6.82746 21.0194 8.60929 21.9718 10.5491 22.3577C12.4889 22.7435 14.4996 22.5455 16.3268 21.7886C18.1541 21.0317 19.7159 19.75 20.8147 18.1055C21.9135 16.461 22.5 14.5276 22.5 12.5498C22.5 11.2366 22.2413 9.93622 21.7388 8.72297C21.2363 7.50971 20.4997 6.40732 19.5711 5.47873C18.6425 4.55015 17.5401 3.81355 16.3268 3.311C15.1136 2.80846 13.8132 2.5498 12.5 2.5498ZM12.5 20.5498C10.9178 20.5498 9.37104 20.0806 8.05544 19.2016C6.73985 18.3225 5.71447 17.0731 5.10897 15.6113C4.50347 14.1495 4.34504 12.5409 4.65372 10.9891C4.9624 9.43723 5.72433 8.01177 6.84315 6.89295C7.96197 5.77413 9.38743 5.0122 10.9393 4.70352C12.4911 4.39484 14.0997 4.55326 15.5615 5.15876C17.0233 5.76427 18.2727 6.78964 19.1518 8.10524C20.0308 9.42083 20.5 10.9675 20.5 12.5498C20.5 14.6715 19.6572 16.7064 18.1569 18.2067C16.6566 19.7069 14.6217 20.5498 12.5 20.5498Z" fill="#1A1B1F"/>
</svg>
