<?xml version="1.0" encoding="utf-8"?>
<!-- Generator: Adobe Illustrator 25.0.1, SVG Export Plug-In . SVG Version: 6.00 Build 0)  -->
<svg version="1.1" id="Calque_1" xmlns="http://www.w3.org/2000/svg" xmlns:xlink="http://www.w3.org/1999/xlink" x="0px" y="0px"
	 viewBox="0 0 1500 1500" style="enable-background:new 0 0 1500 1500;" xml:space="preserve">
<style type="text/css">
	.st0{fill:#A2C3DE;}
	.st1{fill:#E9E557;}
	.st2{fill:#FFFFFF;}
	.st3{fill:#50468B;}
	.st4{fill:#605696;}
	.st5{fill:#A4B1D4;}
	.st6{fill:none;stroke:#605696;stroke-width:2;stroke-miterlimit:10;}
	.st7{fill:#82368C;}
</style>
<g>
	<path class="st0" d="M970.9,363.7c-50.2,50.2-126.3,58.3-185,24.4c11.3-6.6,22.1-14.7,31.7-24.4c59.8-59.8,59.8-156.9,0-216.9
		c-9.7-9.7-20.4-17.8-31.7-24.4c58.7-33.9,134.9-25.8,185,24.4C1030.7,206.8,1030.7,303.9,970.9,363.7z"/>
	<path class="st0" d="M1114.8,595.2c-32.2-32.5-70.6-58.6-113.3-76.5c-42.5-18.1-89.4-28.1-138.4-28.1c-26.4,0-52.1,2.9-76.9,8.4
		c21.5,4.6,42.2,11.3,62.1,19.8c42.8,17.9,81,43.9,113.2,76.3c134.1,134.2,149.6,366.5,26.4,506.5L786.7,1347l20,25.1
		c14,16.4,34.7,25.9,56.4,25.9c21.6,0,42.1-9.5,56.4-25.9l221.9-270.6C1264.4,961.6,1248.9,729.3,1114.8,595.2z"/>
	<path class="st0" d="M865.8,847c0,56.4-30.6,105.6-76.1,132.1c-22.5,13.1-48.7,20.6-76.6,20.6c-84.4,0-152.8-68.4-152.8-152.7
		c0-84.4,68.4-152.8,152.8-152.8c27.9,0,54.1,7.5,76.6,20.6C835.2,741.3,865.8,790.6,865.8,847z"/>
	<circle class="st4" cx="632.5" cy="255.3" r="153.3"/>
	<path class="st4" d="M884.8,595.1c-32.2-32.4-70.4-58.4-113.2-76.4c-42.6-18.1-89.4-28.1-138.5-28.1
		c-98.3,0-187.3,39.9-251.7,104.5c-70.9,70.9-106.7,169-106.7,266.5c0,87.1,28.5,173.9,86.7,239.8l215.2,270.6
		c14,16.5,34.6,25.9,56.4,25.9c21.6,0,42.1-9.4,56.4-25.9l221.7-270.6C1034.5,961.6,1019,729.3,884.8,595.1z M636.4,999.7
		c-84.3,0-152.7-68.4-152.7-152.7c0-84.3,68.4-152.7,152.7-152.7S789.1,762.6,789.1,847C789.1,931.3,720.8,999.7,636.4,999.7z"/>
</g>
</svg>
